<svg xmlns="http://www.w3.org/2000/svg" xmlns:xlink="http://www.w3.org/1999/xlink" version="1.1" x="0px" y="0px" viewBox="0 0 48 60" style="enable-background:new 0 0 48 48;" xml:space="preserve"><g><path d="M47.2,11.5L44,3.9c0,0,0-0.1-0.1-0.1c-1.8-2.9-4.6-2.3-4.8-2.2l-6.5,2.4c-8.2-7.1-17.3-2.4-17.4-2.3   C7.9,5.7,8.3,12.4,8.4,13.5C8,18.5,12.6,23.1,14,24.3c0,1.5,0.7,2.3,1.4,2.8c0.2,1.2,1.5,2.3,2.3,2.9c-0.3,1.1-1,2.7-1.4,3.6   C13.9,34.5,5.7,40.4,1,46c-0.3,0.3-0.2,0.6-0.2,1c0,0.6,0.4,1,1,1H44c0.6,0,1.1-0.6,1-1.2c-1-5.3-4.9-8.1-9.5-10.3   c0.1-0.9-0.1-1.6-0.2-2.1c1.1-1.4,1-3.7,1-4.2c0.1-2.2,2.6-3.1,3.1-3.3c2.5-0.1,3.3-1.4,3.5-1.8c0.9-1.7,0.3-3.2-0.5-4.1   c0.2-0.8,0.2-1.6-0.3-2.3c0.3-0.8,0.1-1.5-0.2-1.9l2.8-1.2C47.3,14.4,47.5,12.4,47.2,11.5z M35.2,17.7c-3.4,0.8-5.3-0.3-6.1-1.8   l-2.2-5c0,0,0,0,0,0c0,0,0,0,0,0c0,0-0.3-0.8,0.1-1.7c0.4-0.7,1.3-1.7,3.4-2.5C30.7,7.3,34.8,17.1,35.2,17.7z M11.3,17.6   c-0.6-1.3-1-2.7-0.9-4.1c0.1-1-0.7-6.6,5.8-10.2c0.1,0,7.3-3.8,14.1,1.3c-2.5,0.9-4.2,2.1-5,3.7c-0.5,0.9-0.5,1.8-0.4,2.4   c-0.1,0.1-12.2,5.4-12.3,5.5C12,16.7,11.6,17.1,11.3,17.6z M14.9,22.3c-0.6-0.6-1.5-1.5-2.3-2.6c0.1-0.5,0.3-1.2,1.1-1.8l11.9-5.3   l1.4,3.1C21.8,17.8,17.4,19.7,14.9,22.3z M41.1,24.2c0,0-0.4,0.6-1.9,0.7c-1,0-4.8,1.8-4.9,5.2c0,0.8,0,2.7-0.7,3.1   c-0.3,0.2-0.6,0.4-0.6,0.8c0,0.4,0.1,0.6,0.4,0.8c0,0,0.4,0.5,0.1,2c-0.1,0.4,0.2,0.9,0.6,1.1c4,1.8,7.3,3.9,8.7,8H3.6   c3.8-4.1,5.1-4.7,6.1-5.6c2.1-1.8,6.1-4.8,7.6-5c0.3-0.1,0.6-0.3,0.7-0.6c0.2-0.4,1.6-3.5,1.8-5.1c0.1-0.4-0.1-0.8-0.5-1   c-1-0.6-2-1.6-2-2c0.1-0.5-0.2-1.1-0.7-1.2c0,0-0.8-0.2-0.6-1.5c2.2-2.6,7.1-4.5,11.8-6.4c3.1,4,9.4,2.3,11.6,0.3l0.6-0.1   c0.1,0.1,0.1,0.2,0.2,0.3c0,0.1,0,0.2-0.2,0.5c-0.4,0.5-0.1,1.3,0.5,1.5c0,0.1,0.1,0.5-0.1,1.1c-0.1,0.4,0,0.9,0.3,1.1   C40.8,22.3,41.8,23.1,41.1,24.2z M36.9,16.6c-0.2-0.1-4.4-10.3-4.4-10.5c0,0,7.1-2.6,7.1-2.6c0,0,1.6-0.3,2.6,1.3l3.1,7.5   c0,0.2,0,1-1.4,1.7C43.9,13.8,36.9,16.5,36.9,16.6z"/></g><text x="0" y="63" fill="#000000" font-size="5px" font-weight="bold" font-family="'Helvetica Neue', Helvetica, Arial-Unicode, Arial, Sans-serif">Created by Vectors Market</text><text x="0" y="68" fill="#000000" font-size="5px" font-weight="bold" font-family="'Helvetica Neue', Helvetica, Arial-Unicode, Arial, Sans-serif">from the Noun Project</text></svg>